<svg width="200" height="200" viewBox="0 0 200 200" fill="none" xmlns="http://www.w3.org/2000/svg">
<circle cx="100" cy="100" r="100" fill="#F7F7F7" fill-opacity="0.7"/>
<g clip-path="url(#clip0)">
<path d="M46.9824 158.854L54.6165 142.822L61.5091 146.104L53.875 162.136L46.9824 158.854Z" fill="#7C8388"/>
<path d="M138.531 146.109L145.424 142.827L153.058 158.859L146.165 162.141L138.531 146.109Z" fill="#575F64"/>
<path d="M40.4355 156.674H63.6789V164.307H40.4355V156.674Z" fill="#575F64"/>
<path d="M136.44 156.674H159.684V164.307H136.44V156.674Z" fill="#32393F"/>
<path d="M99.9991 41.6309L41.8564 142.338H158.142L99.9991 41.6309ZM99.9991 87.2479L121.039 123.691H78.9597L99.9991 87.2479Z" fill="#FF9933"/>
<path d="M100 41.6328V87.2498L121.039 123.691H100V142.338H158.142L100 41.6328Z" fill="#FF7733"/>
<path d="M165 148.277H35L100 35.6934L165 148.277ZM48.2208 140.644H151.779L100 50.9593L48.2208 140.644Z" fill="#FF5533"/>
<path d="M131.313 128.772H68.6865L99.9994 74.5352L131.313 128.772ZM81.907 121.139H118.092L99.9997 89.8013L81.907 121.139Z" fill="#FF5533"/>
<path d="M151.779 140.644H100V148.277H165L100 35.6934V50.9593L151.779 140.644Z" fill="#E62E2E"/>
<path d="M100 74.5352V89.8013L118.092 121.138H100V128.771H131.312L100 74.5352Z" fill="#E62E2E"/>
</g>
<defs>
<clipPath id="clip0">
<rect width="130" height="130" fill="white" transform="translate(35 35)"/>
</clipPath>
</defs>
</svg>
