<svg width="40" height="40" viewBox="0 0 40 40" fill="none" xmlns="http://www.w3.org/2000/svg">
<path fill-rule="evenodd" clip-rule="evenodd" d="M22.3571 20.0004L29.5121 12.8454C30.1638 12.1937 30.1638 11.1404 29.5121 10.4887C28.8604 9.83708 27.8071 9.83708 27.1554 10.4887L20.0004 17.6437L12.8454 10.4887C12.1938 9.83708 11.1404 9.83708 10.4888 10.4887C9.83708 11.1404 9.83708 12.1937 10.4888 12.8454L17.6438 20.0004L10.4888 27.1554C9.83708 27.8071 9.83708 28.8604 10.4888 29.5121C10.8138 29.8371 11.2404 30.0004 11.6671 30.0004C12.0938 30.0004 12.5204 29.8371 12.8454 29.5121L20.0004 22.3571L27.1554 29.5121C27.4804 29.8371 27.9071 30.0004 28.3338 30.0004C28.7604 30.0004 29.1871 29.8371 29.5121 29.5121C30.1638 28.8604 30.1638 27.8071 29.5121 27.1554L22.3571 20.0004Z" fill="#191919"/>
</svg>
