<svg width="13" height="13" viewBox="0 0 13 13" fill="none" xmlns="http://www.w3.org/2000/svg">
<path fill-rule="evenodd" clip-rule="evenodd" d="M10.0896 9.18285L6.83959 11.798C6.63863 11.96 6.35155 11.9573 6.15275 11.7921L2.90275 9.08373C2.77438 8.97648 2.7083 8.82265 2.7083 8.66719C2.7083 8.54477 2.74946 8.42235 2.83342 8.32052C3.02517 8.09085 3.36696 8.05998 3.59717 8.25119L6.50592 10.6762L9.41034 8.3384C9.6438 8.15152 9.98451 8.18781 10.1719 8.42127C10.3604 8.65419 10.3225 8.9949 10.0896 9.18285ZM10.097 3.91801C10.3266 4.10921 10.3575 4.44992 10.1663 4.68121C9.97454 4.91088 9.63329 4.94176 9.40308 4.75055L6.49433 2.32551L3.58937 4.66334C3.35646 4.85021 3.01575 4.81392 2.82779 4.58046C2.74762 4.4808 2.70808 4.36055 2.70808 4.24138C2.70808 4.08321 2.77741 3.92613 2.91012 3.81888L6.16012 1.20371C6.36162 1.04176 6.64871 1.04446 6.84696 1.20967L10.097 3.91801Z" fill="#191919"/>
</svg>
