<svg width="118" height="118" viewBox="0 0 118 118" fill="none" xmlns="http://www.w3.org/2000/svg">
<path fill-rule="evenodd" clip-rule="evenodd" d="M54.083 14.7507C54.083 12.0317 56.2857 9.83398 58.9997 9.83398C61.7137 9.83398 63.9163 12.0317 63.9163 14.7507V24.584C63.9163 27.3029 61.7137 29.5007 58.9997 29.5007C56.2857 29.5007 54.083 27.3029 54.083 24.584V14.7507ZM93.4163 54.084H103.25C105.964 54.084 108.166 56.2817 108.166 59.0006C108.166 61.7196 105.964 63.9173 103.25 63.9173H93.4163C90.7023 63.9173 88.4997 61.7196 88.4997 59.0006C88.4997 56.2817 90.7023 54.084 93.4163 54.084ZM29.4997 59.0006C29.4997 56.2817 27.297 54.084 24.583 54.084H14.7497C12.0357 54.084 9.83301 56.2817 9.83301 59.0006C9.83301 61.7196 12.0357 63.9173 14.7497 63.9173H24.583C27.297 63.9173 29.4997 61.7196 29.4997 59.0006ZM23.6326 24.846C25.5255 22.899 28.6329 22.8351 30.5848 24.7231L37.6599 31.5573C39.6118 33.4404 39.6659 36.5575 37.7779 38.5094C36.8142 39.5075 35.531 40.009 34.2428 40.009C33.0136 40.009 31.7845 39.5567 30.8257 38.6324L23.7506 31.7982C21.7987 29.9151 21.7446 26.7979 23.6326 24.846ZM83.756 40.011C84.9852 40.011 86.2144 39.5538 87.1731 38.6343L94.2482 31.8002C96.2001 29.9122 96.2542 26.795 94.3662 24.848C92.4831 22.901 89.3758 22.8371 87.414 24.7251L80.339 31.5543C78.387 33.4423 78.333 36.5595 80.221 38.5065C81.1846 39.5046 82.4679 40.011 83.756 40.011ZM54.083 93.4173C54.083 90.6984 56.2857 88.5006 58.9997 88.5006C61.7137 88.5006 63.9163 90.6984 63.9163 93.4173V103.251C63.9163 105.97 61.7137 108.167 58.9997 108.167C56.2857 108.167 54.083 105.97 54.083 103.251V93.4173ZM87.1722 79.3684C85.2202 77.4853 82.108 77.5443 80.22 79.4913C78.332 81.4433 78.3861 84.5604 80.338 86.4435L87.4131 93.2777C88.3718 94.202 89.601 94.6543 90.8302 94.6543C92.1183 94.6543 93.4016 94.1528 94.3652 93.1548C96.2532 91.2028 96.1992 88.0857 94.2472 86.2026L87.1722 79.3684ZM23.7521 86.2026L30.8271 79.3684C32.784 77.4853 35.8962 77.5443 37.7793 79.4913C39.6673 81.4433 39.6132 84.5604 37.6613 86.4435L30.5862 93.2777C29.6275 94.202 28.3983 94.6543 27.1691 94.6543C25.881 94.6543 24.5977 94.1528 23.6341 93.1548C21.7461 91.2028 21.8001 88.0857 23.7521 86.2026Z" fill="#F2F2F2"/>
</svg>
