<svg width="32" height="32" viewBox="0 0 32 32" fill="none" xmlns="http://www.w3.org/2000/svg">
<path fill-rule="evenodd" clip-rule="evenodd" d="M16 4.7173C13.0909 4.7173 9.10951 4.98296 6.64451 5.17238C5.84347 5.23394 5.21334 5.85458 5.14053 6.64893C4.95301 8.69466 4.71791 11.7121 4.71791 13.9481C4.71791 16.184 4.95301 19.2015 5.14053 21.2472C5.21334 22.0416 5.84347 22.6622 6.64451 22.7237C9.10951 22.9132 13.0909 23.1788 16 23.1788C18.909 23.1788 22.8904 22.9132 25.3554 22.7237C26.1565 22.6622 26.7866 22.0416 26.8594 21.2472C27.0469 19.2015 27.282 16.184 27.282 13.9481C27.282 11.7121 27.0469 8.69466 26.8594 6.64893C26.7866 5.85458 26.1565 5.23394 25.3554 5.17238C22.8904 4.98296 18.909 4.7173 16 4.7173ZM6.48734 3.12713C8.95329 2.93763 13.0044 2.66602 16 2.66602C18.9955 2.66602 23.0466 2.93763 25.5126 3.12713C27.3054 3.26491 28.7375 4.66536 28.9021 6.46168C29.09 8.51115 29.3333 11.6101 29.3333 13.9481C29.3333 16.286 29.09 19.385 28.9021 21.4345C28.7375 23.2308 27.3054 24.6312 25.5126 24.769C23.0466 24.9585 18.9955 25.2301 16 25.2301C13.0044 25.2301 8.95329 24.9585 6.48734 24.769C4.6945 24.6312 3.26247 23.2308 3.09781 21.4345C2.90995 19.385 2.66663 16.286 2.66663 13.9481C2.66663 11.6101 2.90995 8.51115 3.09781 6.46168C3.26247 4.66536 4.6945 3.26491 6.48734 3.12713Z" fill="#3155C3"/>
<path fill-rule="evenodd" clip-rule="evenodd" d="M9.50423 28.307C9.50423 27.7406 9.96343 27.2814 10.5299 27.2814H21.47C22.0365 27.2814 22.4957 27.7406 22.4957 28.307C22.4957 28.8735 22.0365 29.3327 21.47 29.3327H10.5299C9.96343 29.3327 9.50423 28.8735 9.50423 28.307Z" fill="#3155C3"/>
<path fill-rule="evenodd" clip-rule="evenodd" d="M4.03415 18.7344C4.03415 18.1679 4.49334 17.7088 5.05979 17.7088H26.9401C27.5066 17.7088 27.9658 18.1679 27.9658 18.7344C27.9658 19.3008 27.5066 19.76 26.9401 19.76H5.05979C4.49334 19.76 4.03415 19.3008 4.03415 18.7344Z" fill="#3155C3"/>
</svg>
