<svg width="32" height="32" viewBox="0 0 32 32" fill="none" xmlns="http://www.w3.org/2000/svg">
<path fill-rule="evenodd" clip-rule="evenodd" d="M15.9999 4.7173C13.9668 4.7173 11.2366 4.94045 9.32715 5.12561C8.53481 5.20245 7.91646 5.83015 7.85513 6.62592C7.66525 9.0894 7.39777 13.0831 7.39777 15.9994C7.39777 18.9156 7.66525 22.9093 7.85513 25.3728C7.91646 26.1686 8.53481 26.7963 9.32715 26.8731C11.2366 27.0583 13.9668 27.2814 15.9999 27.2814C18.0331 27.2814 20.7632 27.0583 22.6727 26.8731C23.465 26.7963 24.0834 26.1686 24.1447 25.3728C24.3346 22.9093 24.6021 18.9156 24.6021 15.9994C24.6021 13.0831 24.3346 9.0894 24.1447 6.62592C24.0834 5.83015 23.465 5.20245 22.6727 5.12561C20.7632 4.94045 18.0331 4.7173 15.9999 4.7173ZM9.12661 3.08403C11.0411 2.89838 13.858 2.66602 15.9999 2.66602C18.1419 2.66602 20.9587 2.89838 22.8732 3.08403C24.6705 3.25832 26.0659 4.68741 26.2032 6.46929C26.3931 8.93363 26.6666 12.9969 26.6666 15.9994C26.6666 19.0018 26.3931 23.0651 26.2032 25.5294C26.0659 27.3113 24.6705 28.7404 22.8732 28.9147C20.9587 29.1003 18.1419 29.3327 15.9999 29.3327C13.858 29.3327 11.0411 29.1003 9.12661 28.9147C7.32938 28.7404 5.93398 27.3113 5.79664 25.5294C5.60669 23.0651 5.33325 19.0018 5.33325 15.9994C5.33325 12.9969 5.60669 8.93363 5.79664 6.46929C5.93398 4.68741 7.32938 3.25832 9.12661 3.08403Z" fill="#3155C3"/>
<path fill-rule="evenodd" clip-rule="evenodd" d="M10.8386 18.7344C10.8386 19.3008 11.3008 19.76 11.8709 19.76H20.129C20.699 19.76 21.1612 19.3008 21.1612 18.7344C21.1612 18.1679 20.699 17.7088 20.129 17.7088H11.8709C11.3008 17.7088 10.8386 18.1679 10.8386 18.7344Z" fill="#3155C3"/>
<path fill-rule="evenodd" clip-rule="evenodd" d="M10.8386 13.2643C10.8386 13.8308 11.3008 14.2899 11.8709 14.2899H15.9999C16.57 14.2899 17.0322 13.8308 17.0322 13.2643C17.0322 12.6979 16.57 12.2387 15.9999 12.2387H11.8709C11.3008 12.2387 10.8386 12.6979 10.8386 13.2643Z" fill="#3155C3"/>
</svg>
