<svg width="144" height="144" viewBox="0 0 144 144" fill="none" xmlns="http://www.w3.org/2000/svg">
<g filter="url(#filter0_d)">
<circle cx="68" cy="68" r="60" fill="white"/>
</g>
<path d="M68.971 76.6497C70.6692 78.348 70.6692 81.2592 68.971 82.9574L65.4533 86.4751C63.755 88.1733 60.8438 88.1733 59.1456 86.4751L43.7405 70.9486C42.0422 69.2504 42.0422 66.3392 43.7405 64.641L47.2582 61.1233C48.9564 59.4251 51.8676 59.4251 53.5658 61.1233L68.971 76.6497Z" fill="#3456AF"/>
<path d="M82.4344 49.842C84.1326 48.1438 87.0438 48.1438 88.742 49.842L92.2597 53.3597C93.958 55.0579 93.958 57.9692 92.2597 59.6674L65.5736 86.2322C63.8754 87.9304 60.9642 87.9304 59.266 86.2322L55.7483 82.7145C54.0501 81.0163 54.0501 78.1051 55.7483 76.4069L82.4344 49.842Z" fill="#3456AF"/>
<defs>
<filter id="filter0_d" x="0" y="0" width="144" height="144" filterUnits="userSpaceOnUse" color-interpolation-filters="sRGB">
<feFlood flood-opacity="0" result="BackgroundImageFix"/>
<feColorMatrix in="SourceAlpha" type="matrix" values="0 0 0 0 0 0 0 0 0 0 0 0 0 0 0 0 0 0 127 0" result="hardAlpha"/>
<feOffset dx="4" dy="4"/>
<feGaussianBlur stdDeviation="6"/>
<feColorMatrix type="matrix" values="0 0 0 0 0 0 0 0 0 0 0 0 0 0 0 0 0 0 0.1 0"/>
<feBlend mode="normal" in2="BackgroundImageFix" result="effect1_dropShadow"/>
<feBlend mode="normal" in="SourceGraphic" in2="effect1_dropShadow" result="shape"/>
</filter>
</defs>
</svg>
