<svg width="200" height="200" viewBox="0 0 200 200" fill="none" xmlns="http://www.w3.org/2000/svg">
<circle cx="100" cy="100" r="100" fill="#F7F7F7" fill-opacity="0.7"/>
<g clip-path="url(#clip0)">
<path d="M34.8658 170.995C33.6212 170.995 32.3769 170.52 31.4273 169.571C29.5281 167.672 29.5281 164.592 31.4273 162.693L40.2684 153.852C42.1676 151.953 45.2465 151.953 47.1457 153.852C49.0449 155.751 49.0449 158.83 47.1457 160.729L38.3047 169.571C37.3547 170.52 36.1101 170.995 34.8658 170.995Z" fill="#00429D"/>
<path d="M31.5142 169.648C32.4524 170.543 33.6578 170.994 34.8658 170.994C36.1101 170.994 37.355 170.519 38.3043 169.569L47.1453 160.728C49.0166 158.857 49.04 155.842 47.2238 153.938L31.5142 169.648Z" fill="#00347B"/>
<path d="M31.101 136.405C31.812 134.678 32.8676 133.061 34.2685 131.66L37.7287 128.2L44.3026 127.986L44.6336 121.295L51.4762 114.452L56.636 113.749L58.2913 107.637L65.2997 100.629C65.2997 100.629 73.6337 95.3737 75.5325 97.2733L103.73 125.471C105.629 127.369 100.292 135.786 100.292 135.786L93.3936 142.684L87.3044 143.383L86.5234 149.555L79.6943 156.384L74.2328 156.454L72.7619 163.316L69.3428 166.735C68.058 168.02 66.5916 169.014 65.0251 169.719C63.1239 170.573 28.9253 141.691 31.101 136.405Z" fill="#7DD5F4"/>
<path d="M89.7111 111.451L46.1504 155.012C54.7765 162.925 64.0598 170.152 65.0249 169.718C66.5915 169.013 68.0582 168.019 69.3427 166.734L72.7617 163.315L74.2326 156.453L79.6942 156.383L86.5232 149.554L87.3042 143.381L93.3934 142.683L100.292 135.785C100.292 135.785 105.629 127.368 103.73 125.469L89.7111 111.451Z" fill="#4793FF"/>
<path d="M51.4473 114.459L58.3236 107.583L93.3929 142.652L86.5165 149.528L51.4473 114.459Z" fill="#3456AF"/>
<path d="M75.5331 97.272C73.6343 95.3725 70.5553 95.3732 68.6558 97.272L65.2183 100.71L100.293 135.785L103.73 132.347C105.63 130.448 105.63 127.369 103.73 125.469L75.5331 97.272Z" fill="#3456AF"/>
<path d="M31.4494 135.633C29.0127 140.69 29.6598 146.869 33.3914 151.329L49.6752 167.613C52.3729 169.87 55.6989 171.002 59.0272 171.002C61.2006 171.002 63.3728 170.517 65.3705 169.554L31.4494 135.633Z" fill="#3456AF"/>
<path d="M37.6924 128.211L44.5688 121.335L79.6382 156.404L72.7619 163.28L37.6924 128.211Z" fill="#3456AF"/>
<path d="M191.132 117.098C189.909 117.098 188.687 116.641 187.741 115.721C177.029 105.302 162.9 99.564 147.957 99.564C135.723 99.564 123.589 103.598 113.79 110.924C111.639 112.533 108.592 112.093 106.984 109.941C105.375 107.79 105.815 104.743 107.967 103.134C119.435 94.5602 133.637 89.8379 147.957 89.8379C165.447 89.8379 181.985 96.5541 194.523 108.749C196.448 110.621 196.49 113.7 194.618 115.625C193.665 116.605 192.399 117.098 191.132 117.098Z" fill="#CA75F5"/>
<path d="M89.4049 89.1858C88.4035 89.1858 87.3936 88.8778 86.5254 88.2385C84.3626 86.646 83.9003 83.6017 85.4928 81.4389C89.4374 76.0821 91.522 69.7339 91.522 63.0812C91.522 49.8076 83.0765 38.0244 70.5064 33.7608C67.963 32.8981 66.6004 30.1369 67.4631 27.5935C68.3262 25.0498 71.0871 23.6872 73.6305 24.5502C90.1493 30.1534 101.248 45.6377 101.248 63.0815C101.248 71.824 98.5083 80.1661 93.3246 87.2059C92.3714 88.5004 90.8979 89.1858 89.4049 89.1858Z" fill="#FDBF00"/>
<path d="M123.915 64.7101C122.671 64.7101 121.426 64.2352 120.477 63.2856C118.577 61.3867 118.577 58.3074 120.477 56.4083C125.111 51.7734 131.494 50.6206 137.126 49.6035C141.765 48.7658 146.146 47.9747 148.628 45.4926C151.109 43.0108 151.901 38.6299 152.739 33.9915C153.756 28.3597 154.908 21.9761 159.543 17.3416C165.25 11.6353 172.794 9.7906 180.09 8.00683C183.408 7.19535 186.542 6.42893 189.375 5.33053C191.88 4.35889 194.696 5.60221 195.667 8.10669C196.638 10.6108 195.395 13.4279 192.891 14.3988C189.467 15.7265 185.874 16.6051 182.4 17.4545C176.128 18.9883 170.203 20.4368 166.421 24.219C163.939 26.7011 163.147 31.0821 162.309 35.7205C161.292 41.3522 160.139 47.7355 155.505 52.37C150.87 57.0048 144.487 58.1577 138.855 59.1747C134.217 60.0124 129.836 60.8035 127.354 63.2856C126.404 64.2352 125.159 64.7101 123.915 64.7101Z" fill="#FF8856"/>
<path fill-rule="evenodd" clip-rule="evenodd" d="M138.286 23.482C140.965 23.482 143.149 21.2975 143.149 18.6189C143.149 15.9407 140.965 13.7559 138.286 13.7559C135.608 13.7559 133.423 15.9407 133.423 18.6189C133.423 21.2972 135.608 23.482 138.286 23.482Z" fill="#BEE75E"/>
<path fill-rule="evenodd" clip-rule="evenodd" d="M45.7185 74.687C48.3971 74.687 50.5816 72.5026 50.5816 69.824C50.5816 67.1454 48.3971 64.9609 45.7185 64.9609C43.04 64.9609 40.8555 67.1454 40.8555 69.824C40.8555 72.5026 43.04 74.687 45.7185 74.687Z" fill="#D98FF8"/>
<path fill-rule="evenodd" clip-rule="evenodd" d="M40.701 22.1851C43.3795 22.1851 45.564 20.0006 45.564 17.322C45.564 14.6435 43.3792 12.459 40.701 12.459C38.0224 12.459 35.8379 14.6435 35.8379 17.322C35.8379 20.0003 38.0224 22.1851 40.701 22.1851Z" fill="#7DD5F4"/>
<path fill-rule="evenodd" clip-rule="evenodd" d="M148.336 125.281C151.015 125.281 153.199 123.096 153.199 120.418C153.199 117.739 151.015 115.555 148.336 115.555C145.658 115.555 143.473 117.739 143.473 120.418C143.473 123.096 145.658 125.281 148.336 125.281Z" fill="#FF8856"/>
<path fill-rule="evenodd" clip-rule="evenodd" d="M176.542 169.697C179.22 169.697 181.405 167.512 181.405 164.834C181.405 162.155 179.22 159.971 176.542 159.971C173.863 159.971 171.679 162.155 171.679 164.834C171.679 167.512 173.863 169.697 176.542 169.697Z" fill="#4793FF"/>
<path fill-rule="evenodd" clip-rule="evenodd" d="M110.729 164.511C113.408 164.511 115.592 162.327 115.592 159.648C115.592 156.97 113.408 154.785 110.729 154.785C108.051 154.785 105.866 156.97 105.866 159.648C105.866 162.326 108.051 164.511 110.729 164.511Z" fill="#FF435B"/>
<path d="M114.167 36.5999C114.032 36.5999 113.898 36.5941 113.761 36.5831C111.084 36.3616 109.094 34.0124 109.315 31.3358C109.859 24.7535 108.238 18.0402 104.75 12.4324C103.331 10.1517 104.03 7.15311 106.311 5.73439C108.591 4.31567 111.59 5.01466 113.008 7.29511C117.592 14.6646 119.723 23.4868 119.008 32.1366C118.798 34.6774 116.671 36.5999 114.167 36.5999Z" fill="#D98FF8"/>
<path d="M153.152 75.8425C151.116 75.8425 149.218 74.5538 148.539 72.5162C147.69 69.9683 149.067 67.2142 151.614 66.3644C161.794 62.9713 172.774 62.0807 183.37 63.7889C186.021 64.2166 187.824 66.7129 187.396 69.3643C186.969 72.0156 184.473 73.8205 181.821 73.3909C172.769 71.9304 163.387 72.6919 154.69 75.5916C154.18 75.7618 153.662 75.8425 153.152 75.8425Z" fill="#FF435B"/>
<path fill-rule="evenodd" clip-rule="evenodd" d="M116.642 89.4332C119.32 89.4332 121.505 87.2487 121.505 84.5701C121.505 81.8918 119.32 79.707 116.642 79.707C113.963 79.707 111.779 81.8915 111.779 84.5701C111.779 87.2487 113.963 89.4332 116.642 89.4332Z" fill="#7DD5F4"/>
<path fill-rule="evenodd" clip-rule="evenodd" d="M184.972 40.6636C187.651 40.6636 189.836 38.4788 189.836 35.8006C189.836 33.1223 187.651 30.9375 184.972 30.9375C182.294 30.9375 180.109 33.1223 180.109 35.8006C180.109 38.4788 182.294 40.6636 184.972 40.6636Z" fill="#00CB75"/>
<path d="M142.731 58.4317C147.264 57.4649 151.91 55.9651 155.504 52.3703C159.099 48.7756 160.599 44.1294 161.565 39.5977L142.731 58.4317Z" fill="#FF435B"/>
<path d="M194.653 6.50977L184.137 17.0263C187.062 16.3001 190.035 15.5061 192.891 14.3983C195.395 13.4273 196.638 10.61 195.667 8.10615C195.429 7.49373 195.08 6.95782 194.653 6.50977Z" fill="#FF435B"/>
<path fill-rule="evenodd" clip-rule="evenodd" d="M120.052 81.1113L113.183 87.9809C114.065 88.876 115.29 89.4333 116.642 89.4333C119.32 89.4333 121.505 87.2485 121.505 84.5699C121.505 83.2187 120.947 81.9941 120.052 81.1113Z" fill="#4793FF"/>
<path d="M89.7113 111.451L82.835 118.328L100.292 135.785L103.73 132.347C105.629 130.448 105.629 127.369 103.73 125.469L89.7113 111.451Z" fill="#264EB4"/>
<path d="M69.0605 132.076L75.9369 125.2L93.3914 142.654L86.5151 149.531L69.0605 132.076Z" fill="#264EB4"/>
<path d="M55.3066 145.828L62.183 138.952L79.6375 156.406L72.7612 163.283L55.3066 145.828Z" fill="#264EB4"/>
<path d="M41.6128 159.551L49.6751 167.613C52.3728 169.87 55.6988 171.001 59.0271 171.001C61.2006 171.001 63.3727 170.517 65.3705 169.554L48.4901 152.674L41.6128 159.551Z" fill="#264EB4"/>
</g>
<defs>
<clipPath id="clip0">
<rect width="166" height="166" fill="white" transform="translate(30 5)"/>
</clipPath>
</defs>
</svg>
