<svg width="32" height="32" viewBox="0 0 32 32" fill="none" xmlns="http://www.w3.org/2000/svg">
<path fill-rule="evenodd" clip-rule="evenodd" d="M27.3148 5.1139C27.4194 4.84492 27.1544 4.57991 26.8854 4.68451L4.86839 13.2467C4.59119 13.3545 4.585 13.7445 4.85863 13.861L13.3116 17.4614C13.8634 17.6964 14.3029 18.1359 14.538 18.6877L18.1383 27.1407C18.2548 27.4143 18.6448 27.4081 18.7526 27.1309L27.3148 5.1139ZM26.1641 2.82957C28.0469 2.09736 29.9019 3.95244 29.1697 5.83526L20.6076 27.8523C19.853 29.7927 17.123 29.836 16.3072 27.9206L12.7069 19.4676C12.6733 19.3888 12.6105 19.326 12.5317 19.2924L4.07872 15.6921C2.16327 14.8763 2.20663 12.1463 4.14702 11.3917L26.1641 2.82957Z" fill="#3155C3"/>
</svg>
