<svg width="34" height="32" viewBox="0 0 34 32" fill="#F47A21" xmlns="http://www.w3.org/2000/svg">
<path fill-rule="evenodd" clip-rule="evenodd" d="M16.9992 23.7506C17.2642 23.7506 17.5292 23.814 17.7709 23.939L24.0526 27.2223L22.8576 20.294C22.7626 19.7506 22.9442 19.1973 23.3409 18.8123L28.4009 13.919L21.3959 12.899C20.8542 12.8206 20.3859 12.4823 20.1426 11.9923L16.9992 5.66898L13.8559 11.9923C13.6126 12.4823 13.1442 12.8206 12.6026 12.899L5.59757 13.919L10.6576 18.8123C11.0542 19.1973 11.2359 19.7506 11.1409 20.294L9.94591 27.2223L16.2276 23.939C16.4692 23.814 16.7342 23.7506 16.9992 23.7506ZM26.2692 31.9256C26.0042 31.9256 25.7392 31.864 25.4976 31.7373L16.9992 27.2973L8.50091 31.7373C7.93758 32.0306 7.25758 31.979 6.74925 31.6057C6.23591 31.2323 5.98091 30.6007 6.08758 29.9757L7.70758 20.5956L0.840914 13.954C0.382581 13.5123 0.219247 12.849 0.414247 12.244C0.607581 11.639 1.13091 11.199 1.75925 11.1073L11.2609 9.72732L15.5059 1.18398C16.0692 0.050651 17.9292 0.050651 18.4926 1.18398L22.7376 9.72732L32.2392 11.1073C32.8676 11.199 33.3909 11.639 33.5842 12.244C33.7792 12.849 33.6159 13.5123 33.1576 13.954L26.2909 20.5956L27.9109 29.9757C28.0176 30.6007 27.7626 31.2323 27.2493 31.6057C26.9609 31.819 26.6159 31.9256 26.2692 31.9256Z" fill="#F47A21"/>
</svg>
