<svg width="48" height="48" viewBox="0 0 48 48" fill="none" xmlns="http://www.w3.org/2000/svg">
<g clip-path="url(#clip0)">
<path d="M37.8075 44.4666C37.2646 44.4666 36.7365 44.1849 36.4456 43.6809C36.0117 42.9295 36.2693 41.9687 37.0206 41.5349L40.0212 39.8025C40.7726 39.3688 41.7334 39.6261 42.1673 40.3776C42.6012 41.129 42.3436 42.0898 41.5923 42.5236L38.5917 44.256C38.3442 44.3987 38.0741 44.4666 37.8075 44.4666Z" fill="#43386B"/>
<path d="M23.3562 37.1314C23.3562 31.7546 20.0873 25.5086 16.0547 23.1804C14.0275 22.0101 12.313 22.0948 10.8705 23.0677L7.74463 24.8725L17.6207 44.894L21.0104 42.9259C22.4528 41.9802 23.3562 39.9575 23.3562 37.1314Z" fill="url(#paint0_linear)"/>
<path d="M17.3117 45.0414C20.5338 43.6685 21.1786 37.9385 18.7519 32.2431C16.3251 26.5476 11.7458 23.0436 8.52366 24.4165C5.30152 25.7894 4.65672 31.5194 7.08347 37.2148C9.51021 42.9102 14.0895 46.4143 17.3117 45.0414Z" fill="#A996EB"/>
<path d="M18.2632 39.3456C18.2632 44.1596 15.3364 46.3723 11.7259 44.2877C8.11535 42.2032 5.18848 36.6109 5.18848 31.7969C5.18848 26.983 8.11535 24.7703 11.7259 26.8548C15.3364 28.9393 18.2632 34.5316 18.2632 39.3456Z" fill="url(#paint1_linear)"/>
<path d="M13.8797 38.5844C13.8797 41.4488 12.1382 42.7653 9.98988 41.5251C7.8416 40.2848 6.1001 36.9573 6.1001 34.0929C6.1001 31.2286 7.8416 29.9121 9.98988 31.1523C12.1382 32.3926 13.8797 35.7201 13.8797 38.5844Z" fill="url(#paint2_linear)"/>
<path d="M42.812 25.0995C42.812 29.9135 39.8852 32.1262 36.2747 30.0416C32.6642 27.9571 29.7373 22.3648 29.7373 17.5509C29.7373 12.7369 32.6642 10.5242 36.2747 12.6087C39.8852 14.6932 42.812 20.2854 42.812 25.0995Z" fill="url(#paint3_linear)"/>
<path d="M42.5199 26.0513C42.5199 20.6745 39.2509 14.4285 35.2184 12.1004C33.1911 10.93 31.4766 11.0147 30.0341 11.9877L26.9082 13.7924L36.7843 33.8139L39.8266 32.0475C39.9455 31.9869 40.0614 31.9196 40.174 31.8458C41.6165 30.9001 42.5199 28.8774 42.5199 26.0513Z" fill="url(#paint4_linear)"/>
<path d="M36.467 33.9555C39.6891 32.5826 40.3339 26.8526 37.9072 21.1571C35.4804 15.4617 30.9011 11.9576 27.6789 13.3305C24.4568 14.7034 23.812 20.4335 26.2387 26.1289C28.6655 31.8243 33.2448 35.3284 36.467 33.9555Z" fill="#A996EB"/>
<path d="M36.6106 26.2836C36.6106 29.6289 34.5767 31.1664 32.0677 29.7179C29.5588 28.2694 27.5249 24.3833 27.5249 21.038C27.5249 17.6928 29.5588 16.1552 32.0677 17.6037C34.5767 19.0522 36.6106 22.9383 36.6106 26.2836Z" fill="url(#paint5_linear)"/>
<path d="M33.9952 4.51116C34.0466 4.51847 34.0745 4.5225 34.0745 4.5225L33.4306 4.15078C33.4306 4.15078 33.4305 4.15069 33.4304 4.15069C33.4304 4.15069 33.4303 4.1506 33.4303 4.1506C33.4303 4.1506 27.4239 0.716534 27.2796 0.697409C25.0817 -0.326434 22.5693 -0.223216 20.4356 1.00866C14.3986 4.4941 10.6484 10.9897 10.6484 17.9604V23.295C11.5227 23.3062 12.4839 23.5883 13.493 24.1708C14.4495 24.7231 15.3621 25.4978 16.1993 26.4271V26.4462L17.6655 25.5997V21.1025C17.6655 14.6539 21.1348 8.64488 26.7195 5.42053C27.5698 4.92957 28.4953 4.66247 29.4275 4.61766C29.8857 5.46975 30.1349 6.43707 30.1349 7.45519V11.9999C30.9986 12.0189 31.9459 12.3007 32.9398 12.8745C33.9115 13.4355 34.8379 14.2256 35.6858 15.1745V15.1956L37.152 14.349V10.5971C37.1523 8.13141 35.9835 5.90232 33.9952 4.51116Z" fill="url(#paint6_linear)"/>
<path d="M17.6661 25.5988V21.1016C17.6661 14.653 21.1354 8.64397 26.7201 5.41963C28.5915 4.33916 30.826 4.33907 32.6976 5.41963C34.5691 6.5001 35.6863 8.43538 35.6863 10.5963V15.1948L37.1526 14.3482V10.5963C37.1526 7.90522 35.7611 5.49538 33.4307 4.14979C31.1 2.80419 28.3174 2.80429 25.9868 4.14979C19.9499 7.63522 16.1997 14.1308 16.1997 21.1016V26.4453L17.6661 25.5988Z" fill="#A996EB"/>
<path d="M29.4378 47.9997C28.8 47.9997 28.1622 47.8355 27.5932 47.5071L20.5937 43.4659C20.2431 43.2634 20.1229 42.8151 20.3254 42.4644C20.5279 42.1136 20.9763 41.9935 21.3269 42.196L28.3264 46.2372C29.0122 46.6331 29.864 46.6329 30.5493 46.2372L36.7856 42.6368C37.1364 42.4344 37.5847 42.5545 37.7871 42.9051C37.9895 43.2557 37.8693 43.7041 37.5187 43.9066L31.2825 47.5071C30.7136 47.8355 30.0758 47.9997 29.4378 47.9997Z" fill="#A996EB"/>
</g>
<defs>
<linearGradient id="paint0_linear" x1="18.5999" y1="35.5177" x2="14.2463" y2="27.977" gradientUnits="userSpaceOnUse">
<stop stop-color="#43386B"/>
<stop offset="1" stop-color="#7662BD"/>
</linearGradient>
<linearGradient id="paint1_linear" x1="11.7259" y1="43.9271" x2="11.7259" y2="29.0542" gradientUnits="userSpaceOnUse">
<stop stop-color="#D5C9F1"/>
<stop offset="1" stop-color="#F2EFFA"/>
</linearGradient>
<linearGradient id="paint2_linear" x1="9.98988" y1="41.378" x2="9.98988" y2="29.0183" gradientUnits="userSpaceOnUse">
<stop stop-color="#A996EB"/>
<stop offset="1" stop-color="#D7D1EB"/>
</linearGradient>
<linearGradient id="paint3_linear" x1="36.2747" y1="29.681" x2="36.2747" y2="14.8081" gradientUnits="userSpaceOnUse">
<stop stop-color="#D5C9F1"/>
<stop offset="1" stop-color="#F2EFFA"/>
</linearGradient>
<linearGradient id="paint4_linear" x1="37.7635" y1="24.4377" x2="33.4099" y2="16.8969" gradientUnits="userSpaceOnUse">
<stop stop-color="#43386B"/>
<stop offset="1" stop-color="#7662BD"/>
</linearGradient>
<linearGradient id="paint5_linear" x1="27.5249" y1="23.6607" x2="36.6106" y2="23.6607" gradientUnits="userSpaceOnUse">
<stop stop-color="#43386B"/>
<stop offset="1" stop-color="#7662BD"/>
</linearGradient>
<linearGradient id="paint6_linear" x1="21.9394" y1="16.9373" x2="25.8879" y2="10.0983" gradientUnits="userSpaceOnUse">
<stop stop-color="#43386B"/>
<stop offset="1" stop-color="#7662BD"/>
</linearGradient>
<clipPath id="clip0">
<rect width="48" height="48" fill="white"/>
</clipPath>
</defs>
</svg>
