<svg width="48" height="42" viewBox="0 0 48 42" fill="none" xmlns="http://www.w3.org/2000/svg">
<g clip-path="url(#clip0)">
<path d="M31.4801 2.68953L31.4806 2.68862L26.6966 0.271901C26.2957 -0.0200481 25.7064 -0.10454 25.1912 0.155745L7.27413 9.20707C6.19806 9.7507 5.53516 10.7553 5.53516 11.8426V38.2958C5.53516 38.7227 5.79016 39.0712 6.15147 39.2703L6.15081 39.2716L6.17322 39.2829C6.18803 39.2907 6.20284 39.2982 6.21794 39.3056L11.0092 41.726C11.4102 42.0192 12.0004 42.1043 12.5166 41.8436L30.4337 32.7923C31.5097 32.2487 32.1726 31.244 32.1726 30.1568V3.7036C32.1726 3.24701 31.8816 2.87984 31.4801 2.68953Z" fill="url(#paint0_linear)"/>
<path d="M12.2766 11.7546L30.1936 2.70324C31.0732 2.25896 32.1725 2.81431 32.1725 3.70295V30.1561C32.1725 31.2434 31.5096 32.248 30.4335 32.7916L12.5165 41.843C11.637 42.2872 10.5376 41.7319 10.5376 40.8432V14.3901C10.5377 13.3028 11.2005 12.2982 12.2766 11.7546Z" fill="#7662BD"/>
<path d="M12.6431 14.8444L30.2894 5.92969V10.7305L12.6431 19.6451V14.8444Z" fill="#43386B"/>
<path d="M18.3296 20.0017L18.3297 20.0015L17.3952 19.5308L17.3951 19.5309C17.0262 19.3599 16.5524 19.3842 16.0355 19.6454C14.8593 20.2396 13.9058 21.8338 13.9058 23.206C13.9058 23.9604 14.1943 24.49 14.6493 24.7159L14.649 24.7164L15.5028 25.1478L15.5036 25.1462C15.8789 25.3425 16.3713 25.3283 16.9108 25.0557C18.087 24.4615 19.0405 22.8674 19.0405 21.4951C19.0407 20.7588 18.766 20.2363 18.3296 20.0017Z" fill="url(#paint1_linear)"/>
<path d="M19.0407 21.4957C19.0407 20.1234 18.0872 19.4927 16.911 20.0869C15.7348 20.6811 14.7812 22.2752 14.7812 23.6475C14.7812 25.0197 15.7348 25.6505 16.911 25.0563C18.0872 24.4621 19.0407 22.868 19.0407 21.4957Z" fill="url(#paint2_linear)"/>
<path d="M23.6783 17.2926L23.6784 17.2925L22.7439 16.8218L22.7438 16.8219C22.3749 16.6509 21.901 16.6752 21.3841 16.9364C20.2079 17.5307 19.2544 19.1248 19.2544 20.497C19.2544 21.2514 19.543 21.781 19.9979 22.0069L19.9976 22.0074L20.8514 22.4388L20.8523 22.4371C21.2275 22.6334 21.7199 22.6192 22.2595 22.3466C23.4356 21.7524 24.3892 20.1583 24.3892 18.786C24.3894 18.0496 24.1145 17.5272 23.6783 17.2926Z" fill="url(#paint3_linear)"/>
<path d="M24.3893 18.7867C24.3893 17.4144 23.4358 16.7837 22.2596 17.3779C21.0834 17.9722 20.1299 19.5663 20.1299 20.9385C20.1299 22.3107 21.0834 22.9415 22.2596 22.3473C23.4358 21.7532 24.3893 20.1591 24.3893 18.7867Z" fill="url(#paint4_linear)"/>
<path d="M29.0264 14.5915L29.0265 14.5914L28.092 14.1207L28.0919 14.1207C27.723 13.9497 27.2492 13.9741 26.7323 14.2353C25.5561 14.8295 24.6025 16.4236 24.6025 17.7959C24.6025 18.5503 24.8911 19.0799 25.3461 19.3058L25.3458 19.3063L26.1996 19.7377L26.2004 19.7361C26.5757 19.9324 27.0681 19.9182 27.6076 19.6456C28.7838 19.0514 29.7373 17.4573 29.7373 16.085C29.7374 15.3486 29.4626 14.8261 29.0264 14.5915Z" fill="url(#paint5_linear)"/>
<path d="M29.7375 16.0855C29.7375 14.7133 28.7839 14.0826 27.6077 14.6767C26.4316 15.271 25.478 16.8651 25.478 18.2373C25.478 19.6095 26.4316 20.2402 27.6077 19.6461C28.7839 19.0519 29.7375 17.4577 29.7375 16.0855Z" fill="url(#paint6_linear)"/>
<path d="M18.3296 26.3864L18.3297 26.3863L17.3952 25.9156L17.3951 25.9157C17.0262 25.7446 16.5524 25.769 16.0355 26.0302C14.8593 26.6243 13.9058 28.2185 13.9058 29.5908C13.9058 30.3452 14.1943 30.8748 14.6493 31.1006L14.649 31.1012L15.5028 31.5325L15.5036 31.5309C15.8789 31.7272 16.3713 31.713 16.9108 31.4404C18.087 30.8462 19.0405 29.252 19.0405 27.8798C19.0407 27.1434 18.766 26.621 18.3296 26.3864Z" fill="url(#paint7_linear)"/>
<path d="M19.0407 27.8805C19.0407 26.5082 18.0872 25.8775 16.911 26.4717C15.7348 27.0659 14.7812 28.66 14.7812 30.0323C14.7812 31.4045 15.7348 32.0352 16.911 31.4411C18.0872 30.8469 19.0407 29.2528 19.0407 27.8805Z" fill="url(#paint8_linear)"/>
<path d="M23.6783 23.6793L23.6784 23.6792L22.7439 23.2085L22.7438 23.2086C22.3749 23.0376 21.901 23.062 21.3841 23.3232C20.2079 23.9174 19.2544 25.5115 19.2544 26.8837C19.2544 27.6382 19.543 28.1678 19.9979 28.3936L19.9976 28.3942L20.8514 28.8255L20.8523 28.8238C21.2275 29.0201 21.7199 29.006 22.2595 28.7334C23.4356 28.1391 24.3892 26.545 24.3892 25.1728C24.3894 24.4364 24.1145 23.9139 23.6783 23.6793Z" fill="url(#paint9_linear)"/>
<path d="M24.3893 25.1735C24.3893 23.8012 23.4358 23.1704 22.2596 23.7647C21.0834 24.3589 20.1299 25.953 20.1299 27.3252C20.1299 28.6974 21.0834 29.3283 22.2596 28.734C23.4358 28.1398 24.3893 26.5457 24.3893 25.1735Z" fill="url(#paint10_linear)"/>
<path d="M29.0264 20.9763L29.0265 20.9761L28.092 20.5054L28.0919 20.5055C27.723 20.3345 27.2492 20.3588 26.7323 20.62C25.5561 21.2143 24.6025 22.8084 24.6025 24.1807C24.6025 24.9351 24.8911 25.4647 25.3461 25.6905L25.3458 25.6911L26.1996 26.1224L26.2004 26.1209C26.5757 26.3172 27.0681 26.303 27.6076 26.0304C28.7838 25.4362 29.7373 23.8421 29.7373 22.4698C29.7374 21.7334 29.4626 21.2109 29.0264 20.9763Z" fill="url(#paint11_linear)"/>
<path d="M29.7375 22.4703C29.7375 21.0981 28.7839 20.4673 27.6077 21.0615C26.4316 21.6557 25.478 23.2498 25.478 24.6221C25.478 25.9944 26.4316 26.6251 27.6077 26.0309C28.7839 25.4367 29.7375 23.8426 29.7375 22.4703Z" fill="url(#paint12_linear)"/>
<path d="M18.3296 32.7732L18.3297 32.773L17.3952 32.3023L17.3951 32.3024C17.0262 32.1314 16.5524 32.1557 16.0355 32.4169C14.8593 33.0111 13.9058 34.6053 13.9058 35.9775C13.9058 36.7319 14.1943 37.2615 14.6493 37.4873L14.649 37.4879L15.5028 37.9192L15.5036 37.9176C15.8789 38.1139 16.3713 38.0997 16.9108 37.8271C18.087 37.2329 19.0405 35.6388 19.0405 34.2665C19.0407 33.5302 18.766 33.0078 18.3296 32.7732Z" fill="url(#paint13_linear)"/>
<path d="M19.0407 34.2672C19.0407 32.895 18.0872 32.2642 16.911 32.8584C15.7348 33.4526 14.7812 35.0467 14.7812 36.419C14.7812 37.7913 15.7348 38.422 16.911 37.8278C18.0872 37.2335 19.0407 35.6394 19.0407 34.2672Z" fill="url(#paint14_linear)"/>
<path d="M23.6783 30.0641L23.6784 30.0639L22.7439 29.5932L22.7438 29.5934C22.3749 29.4224 21.901 29.4467 21.3841 29.7079C20.2079 30.3022 19.2544 31.8963 19.2544 33.2685C19.2544 34.0229 19.543 34.5525 19.9979 34.7784L19.9976 34.7789L20.8514 35.2103L20.8523 35.2086C21.2275 35.4049 21.7199 35.3907 22.2595 35.1181C23.4356 34.5239 24.3892 32.9298 24.3892 31.5576C24.3894 30.8212 24.1145 30.2987 23.6783 30.0641Z" fill="url(#paint15_linear)"/>
<path d="M24.3893 31.5582C24.3893 30.186 23.4358 29.5552 22.2596 30.1494C21.0834 30.7436 20.1299 32.3377 20.1299 33.7099C20.1299 35.0822 21.0834 35.713 22.2596 35.1187C23.4358 34.5246 24.3893 32.9304 24.3893 31.5582Z" fill="url(#paint16_linear)"/>
<path d="M29.0264 27.363L29.0265 27.3628L28.092 26.8922L28.0919 26.8922C27.723 26.7212 27.2492 26.7456 26.7323 27.0067C25.5561 27.601 24.6025 29.1951 24.6025 30.5673C24.6025 31.3218 24.8911 31.8514 25.3461 32.0772L25.3458 32.0778L26.1996 32.5091L26.2004 32.5075C26.5757 32.7038 27.0681 32.6896 27.6076 32.417C28.7838 31.8228 29.7373 30.2287 29.7373 28.8565C29.7374 28.1201 29.4626 27.5976 29.0264 27.363Z" fill="url(#paint17_linear)"/>
<path d="M29.7375 28.8571C29.7375 27.4848 28.7839 26.854 27.6077 27.4483C26.4316 28.0425 25.478 29.6366 25.478 31.0088C25.478 32.381 26.4316 33.0118 27.6077 32.4176C28.7839 31.8235 29.7375 30.2294 29.7375 28.8571Z" fill="url(#paint18_linear)"/>
<path d="M39.8858 17.7357L39.8862 17.735L36.4971 16.0278L36.4969 16.0283C35.1591 15.4079 33.4407 15.4963 31.5658 16.4435C27.3 18.5985 23.8418 24.38 23.8418 29.3569C23.8418 32.093 24.8884 34.0138 26.5385 34.8328L26.5374 34.835L29.634 36.3992L29.6371 36.3934C30.9982 37.1053 32.7839 37.0539 34.7407 36.0654C39.0066 33.9103 42.4647 28.1289 42.4647 23.152C42.4646 20.4812 41.4679 18.5865 39.8858 17.7357Z" fill="url(#paint19_linear)"/>
<path d="M40.9233 29.3728C43.4905 24.101 42.8084 18.7972 39.3998 17.5264C35.9913 16.2556 31.147 19.4991 28.5799 24.7709C26.0127 30.0427 26.6948 35.3466 30.1033 36.6174C33.5119 37.8882 38.3561 34.6447 40.9233 29.3728Z" fill="#F7E041"/>
<path d="M39.5479 26.7503L37.5369 25.7188C37.1287 25.4951 36.5904 25.4961 36.0452 25.5614C36.1933 25.4122 36.3818 25.2792 36.6009 25.1686C37.3227 24.8039 38.4926 24.6921 39.4135 24.8366L40.2721 22.2976L38.2371 21.2537C38.0256 21.2016 37.7931 21.1735 37.5466 21.1664V20.4657L35.5116 19.4219L33.8564 20.258V22.3923C32.2634 23.5019 31.2679 25.1229 31.2679 26.7345C31.2679 27.8238 31.6885 28.275 32.2747 28.4232L33.7459 29.1664C34.1766 29.5809 34.8655 29.5706 35.5596 29.4681C35.3699 29.7014 35.0982 29.9102 34.765 30.0786C33.8564 30.5376 32.4999 30.5841 31.6039 30.1365L30.7202 32.6591L32.7552 33.7029C33.0816 33.8507 33.4542 33.9388 33.8564 33.9682V34.8643L35.8915 35.9081L37.5467 35.0719V32.8505C39.1148 31.8115 40.2848 30.175 40.2848 28.3892C40.2847 27.4611 39.9889 26.9799 39.5479 26.7503Z" fill="url(#paint20_linear)"/>
<path d="M37.5467 32.8496V35.071L35.8916 35.9071V33.6712C34.7218 34.0734 33.5892 34.0793 32.7554 33.7021L33.6391 31.1794C34.535 31.6269 35.8916 31.5805 36.8001 31.1215C37.4721 30.7821 37.8953 30.2779 37.8953 29.7407C37.8953 28.0129 33.3031 31.3782 33.3031 27.7774C33.3031 26.1658 34.2986 24.5449 35.8916 23.4353V21.301L37.5467 20.4648V22.5846C38.5673 22.1997 39.538 22.1159 40.2722 22.2967L39.4135 24.8357C38.4925 24.6912 37.3228 24.803 36.6009 25.1677C36.0534 25.4443 35.6926 25.8589 35.6926 26.3235C35.6926 28.0077 40.2848 24.7296 40.2848 28.3884C40.2848 30.1742 39.1149 31.8106 37.5467 32.8496Z" fill="#06DAAE"/>
<path d="M33.8564 22.3921L35.8915 23.436V21.3017L33.8564 20.2578V22.3921Z" fill="#236568"/>
<path d="M33.6389 31.1806L31.6039 30.1367L30.7202 32.6593L32.7552 33.7032L33.6389 31.1806Z" fill="#2F878A"/>
</g>
<defs>
<linearGradient id="paint0_linear" x1="5.53516" y1="20.9996" x2="32.1726" y2="20.9996" gradientUnits="userSpaceOnUse">
<stop stop-color="#43386B"/>
<stop offset="1" stop-color="#7662BD"/>
</linearGradient>
<linearGradient id="paint1_linear" x1="16.6178" y1="22.1316" x2="17.3297" y2="20.7225" gradientUnits="userSpaceOnUse">
<stop stop-color="#43386B"/>
<stop offset="1" stop-color="#7662BD"/>
</linearGradient>
<linearGradient id="paint2_linear" x1="16.911" y1="26.2044" x2="16.911" y2="20.6165" gradientUnits="userSpaceOnUse">
<stop stop-color="#A996EB"/>
<stop offset="1" stop-color="#C5BAEB"/>
</linearGradient>
<linearGradient id="paint3_linear" x1="21.9664" y1="19.4225" x2="22.6782" y2="18.0134" gradientUnits="userSpaceOnUse">
<stop stop-color="#43386B"/>
<stop offset="1" stop-color="#7662BD"/>
</linearGradient>
<linearGradient id="paint4_linear" x1="22.2596" y1="22.571" x2="22.2596" y2="17.1544" gradientUnits="userSpaceOnUse">
<stop stop-color="#A996EB"/>
<stop offset="1" stop-color="#C5BAEB"/>
</linearGradient>
<linearGradient id="paint5_linear" x1="27.3144" y1="16.7215" x2="28.0263" y2="15.3123" gradientUnits="userSpaceOnUse">
<stop stop-color="#43386B"/>
<stop offset="1" stop-color="#7662BD"/>
</linearGradient>
<linearGradient id="paint6_linear" x1="27.6077" y1="19.8698" x2="27.6077" y2="14.4531" gradientUnits="userSpaceOnUse">
<stop stop-color="#A996EB"/>
<stop offset="1" stop-color="#C5BAEB"/>
</linearGradient>
<linearGradient id="paint7_linear" x1="16.6178" y1="28.5163" x2="17.3297" y2="27.1072" gradientUnits="userSpaceOnUse">
<stop stop-color="#43386B"/>
<stop offset="1" stop-color="#7662BD"/>
</linearGradient>
<linearGradient id="paint8_linear" x1="16.911" y1="31.6648" x2="16.911" y2="26.2482" gradientUnits="userSpaceOnUse">
<stop stop-color="#A996EB"/>
<stop offset="1" stop-color="#C5BAEB"/>
</linearGradient>
<linearGradient id="paint9_linear" x1="21.9664" y1="25.8092" x2="22.6782" y2="24.4001" gradientUnits="userSpaceOnUse">
<stop stop-color="#43386B"/>
<stop offset="1" stop-color="#7662BD"/>
</linearGradient>
<linearGradient id="paint10_linear" x1="22.2596" y1="28.9576" x2="22.2596" y2="23.541" gradientUnits="userSpaceOnUse">
<stop stop-color="#A996EB"/>
<stop offset="1" stop-color="#C5BAEB"/>
</linearGradient>
<linearGradient id="paint11_linear" x1="27.3144" y1="23.1062" x2="28.0264" y2="21.6971" gradientUnits="userSpaceOnUse">
<stop stop-color="#43386B"/>
<stop offset="1" stop-color="#7662BD"/>
</linearGradient>
<linearGradient id="paint12_linear" x1="27.6077" y1="26.2546" x2="27.6077" y2="20.8379" gradientUnits="userSpaceOnUse">
<stop stop-color="#A996EB"/>
<stop offset="1" stop-color="#C5BAEB"/>
</linearGradient>
<linearGradient id="paint13_linear" x1="16.6178" y1="34.903" x2="17.3297" y2="33.4939" gradientUnits="userSpaceOnUse">
<stop stop-color="#43386B"/>
<stop offset="1" stop-color="#7662BD"/>
</linearGradient>
<linearGradient id="paint14_linear" x1="16.911" y1="38.0514" x2="16.911" y2="32.6348" gradientUnits="userSpaceOnUse">
<stop stop-color="#A996EB"/>
<stop offset="1" stop-color="#C5BAEB"/>
</linearGradient>
<linearGradient id="paint15_linear" x1="21.9664" y1="32.194" x2="22.6782" y2="30.7849" gradientUnits="userSpaceOnUse">
<stop stop-color="#43386B"/>
<stop offset="1" stop-color="#7662BD"/>
</linearGradient>
<linearGradient id="paint16_linear" x1="22.2596" y1="35.3424" x2="22.2596" y2="29.9258" gradientUnits="userSpaceOnUse">
<stop stop-color="#A996EB"/>
<stop offset="1" stop-color="#C5BAEB"/>
</linearGradient>
<linearGradient id="paint17_linear" x1="27.3144" y1="29.493" x2="28.0264" y2="28.0839" gradientUnits="userSpaceOnUse">
<stop stop-color="#43386B"/>
<stop offset="1" stop-color="#7662BD"/>
</linearGradient>
<linearGradient id="paint18_linear" x1="27.6077" y1="32.6413" x2="27.6077" y2="27.2246" gradientUnits="userSpaceOnUse">
<stop stop-color="#A996EB"/>
<stop offset="1" stop-color="#C5BAEB"/>
</linearGradient>
<linearGradient id="paint19_linear" x1="33.6772" y1="25.4602" x2="36.2589" y2="20.3498" gradientUnits="userSpaceOnUse">
<stop stop-color="#FFA538"/>
<stop offset="1" stop-color="#FFC538"/>
</linearGradient>
<linearGradient id="paint20_linear" x1="36.5892" y1="26.3198" x2="37.3948" y2="24.7249" gradientUnits="userSpaceOnUse">
<stop stop-color="#236568"/>
<stop offset="1" stop-color="#2F878A"/>
</linearGradient>
<clipPath id="clip0">
<rect width="48" height="42" fill="white"/>
</clipPath>
</defs>
</svg>
