<svg width="48" height="48" viewBox="0 0 48 48" fill="none" xmlns="http://www.w3.org/2000/svg">
<g clip-path="url(#clip0)">
<path d="M8.29395 30.0583L11.6966 28.1018L11.6967 28.1021C12.317 27.7734 13.1139 27.8202 13.9833 28.3222C15.9615 29.4642 17.565 32.5281 17.565 35.1655C17.565 36.6156 17.0796 37.6334 16.3144 38.0675L16.315 38.0687L13.048 39.9494L8.29395 30.0583Z" fill="url(#paint0_linear)"/>
<path d="M21.7563 37.8552L25.159 35.8987L25.1591 35.899C25.7794 35.5703 26.5763 35.6171 27.4458 36.119C29.4239 37.2611 31.0274 40.3249 31.0274 42.9624C31.0274 44.4124 30.542 45.4303 29.7768 45.8643L29.7774 45.8655L26.5104 47.7462L21.7563 37.8552Z" fill="url(#paint1_linear)"/>
<path d="M5.34619 23.5948V7.27344L31.5425 8.39675V24.7182C31.5425 25.0921 31.3575 25.4661 30.9873 25.6798L20.6098 31.6712C19.8718 32.0973 18.9624 32.0973 18.2244 31.6712L5.90138 24.5565C5.53116 24.3429 5.3461 23.9688 5.34619 23.5948Z" fill="url(#paint2_linear)"/>
<path d="M30.9873 7.43435L18.6642 0.31957C17.9262 -0.106523 17.0168 -0.106523 16.2788 0.31957L5.90138 6.31095C5.16113 6.73835 5.16113 7.80673 5.90138 8.23413L18.2245 15.3489C18.9625 15.775 19.8719 15.775 20.6099 15.3489L30.9874 9.35754C31.7275 8.93013 31.7275 7.86166 30.9873 7.43435Z" fill="url(#paint3_linear)"/>
<path d="M26.9917 5.12667L13.7561 12.7682L10.2451 10.7412L23.4808 3.09961L26.9917 5.12667Z" fill="#DEA861"/>
<path d="M24.8934 3.91406L11.6577 11.5557L12.3455 11.9528L25.5811 4.31119L24.8934 3.91406Z" fill="#CC8241"/>
<path d="M13.7561 12.7693V15.6688L10.2451 13.6417V10.7422L13.7561 12.7693Z" fill="#BA5C25"/>
<path d="M41.9221 31.5088L39.4129 20.9891C39.1123 19.7287 38.3062 18.6475 37.184 17.9997L31.7909 14.882C31.4677 14.6954 31.0989 14.7499 30.8422 14.9522L21.4148 20.3952L19.5244 21.4866L20.2665 27.1634L21.4544 27.8581L30.4656 45.4951L41.562 39.0886C41.6396 39.0568 41.7125 39.0147 41.7788 38.9635C41.9892 38.8007 42.1315 38.5467 42.1315 38.2431V33.2874C42.1313 32.6884 42.0612 32.0915 41.9221 31.5088Z" fill="url(#paint4_linear)"/>
<path d="M32.1182 38.3125L33.6988 37.4C33.793 37.3456 33.9106 37.4136 33.9106 37.5223V38.9097C33.9106 39.0978 33.8103 39.2716 33.6474 39.3657L32.0669 40.2781C31.9726 40.3325 31.855 40.2645 31.855 40.1558V38.7684C31.855 38.5803 31.9553 38.4066 32.1182 38.3125Z" fill="#E9E5F6"/>
<path d="M39.8961 33.8183L41.4766 32.9059C41.5708 32.8515 41.6885 32.9194 41.6885 33.0282V34.4156C41.6885 34.6037 41.5882 34.7775 41.4252 34.8715L39.8447 35.784C39.7505 35.8384 39.6328 35.7704 39.6328 35.6616V34.2742C39.6329 34.0862 39.7332 33.9124 39.8961 33.8183Z" fill="#E9E5F6"/>
<path d="M19.19 30.5512V22.1605C19.19 21.5087 19.8956 21.1013 20.4601 21.4272L25.8532 24.5448C26.9754 25.1927 27.7815 26.2738 28.0821 27.5342L30.5913 38.054C30.7303 38.6366 30.8005 39.2335 30.8005 39.8325V44.7882C30.8005 45.4911 30.0396 45.9304 29.4309 45.579L6.41107 32.2473C5.74151 31.8608 5.3291 31.1464 5.3291 30.3732V25.1356C5.3291 24.7126 5.78707 24.4482 6.15335 24.6597L17.7433 31.3844C18.3855 31.7571 19.19 31.2937 19.19 30.5512Z" fill="url(#paint5_linear)"/>
<path d="M20.583 31.9354V23.3359L24.9355 25.8528C25.3659 26.1013 25.6694 26.5222 25.7692 27.0092L27.6097 35.9961L20.583 31.9354Z" fill="url(#paint6_linear)"/>
<path d="M39.0659 21.8184L29.3999 27.399L31.3867 35.9962L41.0527 30.4155L39.0659 21.8184Z" fill="url(#paint7_linear)"/>
<path d="M20.5605 40.7273C20.5605 38.0899 22.164 36.8776 24.1422 38.0197C26.1203 39.1617 27.7238 42.2256 27.7238 44.863C27.7238 47.5005 26.1202 48.7128 24.1422 47.5707C22.1641 46.4287 20.5605 43.3648 20.5605 40.7273Z" fill="url(#paint8_linear)"/>
<path d="M25.4995 45.9267C26.4836 45.5074 26.6805 43.7573 25.9394 42.0179C25.1982 40.2784 23.7996 39.2082 22.8155 39.6275C21.8314 40.0468 21.6345 41.7968 22.3757 43.5363C23.1169 45.2758 24.5154 46.346 25.4995 45.9267Z" fill="#E9E5F6"/>
<path d="M24.8421 44.381C25.3434 44.1674 25.4438 43.2758 25.0662 42.3896C24.6886 41.5034 23.976 40.9582 23.4747 41.1718C22.9733 41.3854 22.873 42.277 23.2506 43.1632C23.6282 44.0494 24.3407 44.5946 24.8421 44.381Z" fill="#7662BD"/>
<path d="M7.09814 32.9285C7.09814 30.291 8.70174 29.0788 10.6798 30.2208C12.6579 31.3629 14.2614 34.4268 14.2614 37.0642C14.2614 39.7017 12.6579 40.914 10.6798 39.7719C8.70174 38.6299 7.09814 35.566 7.09814 32.9285Z" fill="url(#paint9_linear)"/>
<path d="M12.0357 38.1376C13.0197 37.7183 13.2167 35.9683 12.4755 34.2288C11.7343 32.4893 10.3357 31.4191 9.35166 31.8384C8.36758 32.2577 8.17066 34.0078 8.91182 35.7472C9.65299 37.4867 11.0516 38.5569 12.0357 38.1376Z" fill="#E9E5F6"/>
<path d="M9.54346 34.3409C9.54346 33.5043 10.0521 33.1198 10.6795 33.482C11.307 33.8443 11.8156 34.8161 11.8156 35.6527C11.8156 36.4894 11.307 36.8738 10.6795 36.5116C10.0521 36.1493 9.54346 35.1775 9.54346 34.3409Z" fill="#7662BD"/>
<path d="M42.0996 37.7457L30.4737 44.1112L28.3311 43.0814V45.5737L30.1692 46.6349C30.4937 46.8222 30.8935 46.8222 31.218 46.6349L42.4511 40.1495C42.5974 40.0651 42.6704 39.9173 42.6704 39.7696V37.2773L42.0996 37.7457Z" fill="url(#paint10_linear)"/>
<path d="M28.8283 42.7945L30.8002 43.9329L42.1312 37.3909V36.7129L42.4511 36.8976C42.7435 37.0664 42.7435 37.4885 42.4511 37.6572L31.218 44.1427C30.8935 44.33 30.4937 44.33 30.1692 44.1427L28.3311 43.0814L28.8283 42.7945Z" fill="#A996EB"/>
<path d="M34.5269 39.5578L39.2786 36.8145V37.6293C39.2786 38.1471 39.0024 38.6256 38.5539 38.8844L35.2407 40.7973C34.9234 40.9805 34.5269 40.7516 34.5269 40.3852V39.5578H34.5269Z" fill="url(#paint11_linear)"/>
</g>
<defs>
<linearGradient id="paint0_linear" x1="13.2721" y1="32.943" x2="11.7993" y2="30.3923" gradientUnits="userSpaceOnUse">
<stop stop-color="#43386B"/>
<stop offset="1" stop-color="#7662BD"/>
</linearGradient>
<linearGradient id="paint1_linear" x1="26.7345" y1="40.7398" x2="25.2618" y2="38.1891" gradientUnits="userSpaceOnUse">
<stop stop-color="#43386B"/>
<stop offset="1" stop-color="#7662BD"/>
</linearGradient>
<linearGradient id="paint2_linear" x1="21.5109" y1="19.6322" x2="17.9124" y2="19.6322" gradientUnits="userSpaceOnUse">
<stop stop-color="#DEA861"/>
<stop offset="1" stop-color="#CC8241"/>
</linearGradient>
<linearGradient id="paint3_linear" x1="25.7374" y1="3.6236" x2="12.261" y2="11.4042" gradientUnits="userSpaceOnUse">
<stop stop-color="#DEA861"/>
<stop offset="1" stop-color="#EBCBA0"/>
</linearGradient>
<linearGradient id="paint4_linear" x1="37.8277" y1="39.3905" x2="26.7038" y2="17.8546" gradientUnits="userSpaceOnUse">
<stop stop-color="#1869C7"/>
<stop offset="1" stop-color="#3347F8"/>
</linearGradient>
<linearGradient id="paint5_linear" x1="25.9514" y1="40.8571" x2="18.9928" y2="21.7343" gradientUnits="userSpaceOnUse">
<stop stop-color="#1869C7"/>
<stop offset="1" stop-color="#3347F8"/>
</linearGradient>
<linearGradient id="paint6_linear" x1="24.0964" y1="35.5565" x2="24.0964" y2="24.6881" gradientUnits="userSpaceOnUse">
<stop stop-color="#43386B"/>
<stop offset="1" stop-color="#7662BD"/>
</linearGradient>
<linearGradient id="paint7_linear" x1="35.2263" y1="35.5039" x2="35.2263" y2="23.3327" gradientUnits="userSpaceOnUse">
<stop stop-color="#43386B"/>
<stop offset="1" stop-color="#7662BD"/>
</linearGradient>
<linearGradient id="paint8_linear" x1="24.1423" y1="49.4701" x2="24.1423" y2="36.5468" gradientUnits="userSpaceOnUse">
<stop stop-color="#43386B"/>
<stop offset="1" stop-color="#7662BD"/>
</linearGradient>
<linearGradient id="paint9_linear" x1="10.6798" y1="41.6713" x2="10.6798" y2="28.7481" gradientUnits="userSpaceOnUse">
<stop stop-color="#43386B"/>
<stop offset="1" stop-color="#7662BD"/>
</linearGradient>
<linearGradient id="paint10_linear" x1="30.3415" y1="42.0264" x2="32.071" y2="42.0264" gradientUnits="userSpaceOnUse">
<stop stop-color="#43386B"/>
<stop offset="1" stop-color="#7662BD"/>
</linearGradient>
<linearGradient id="paint11_linear" x1="36.9029" y1="40.7213" x2="36.9029" y2="37.2467" gradientUnits="userSpaceOnUse">
<stop stop-color="#43386B"/>
<stop offset="1" stop-color="#594A8E"/>
</linearGradient>
<clipPath id="clip0">
<rect width="48" height="48" fill="white"/>
</clipPath>
</defs>
</svg>
