<svg width="48" height="42" viewBox="0 0 48 42" fill="none" xmlns="http://www.w3.org/2000/svg">
<g clip-path="url(#clip0)">
<path d="M46.8943 14.8939C46.5259 14.2921 45.4972 13.7838 44.5966 13.7588C44.1006 13.745 43.748 13.8812 43.5919 14.1063L43.5907 14.1058L42.7185 15.3355L42.7208 15.3365C42.5781 15.5224 42.574 15.773 42.7459 16.0539C43.1143 16.6558 44.143 17.164 45.0436 17.1891C45.5641 17.2036 45.9264 17.0529 46.0696 16.8074L46.8963 15.6419L46.8958 15.6416C47.0624 15.4531 47.0756 15.19 46.8943 14.8939Z" fill="url(#paint0_linear)"/>
<path d="M38.3453 28.6759V12.1895L8.104 13.3242V29.8106C8.10391 30.1883 8.31757 30.5661 8.74488 30.782L20.7247 36.834C21.5767 37.2644 22.6264 37.2644 23.4784 36.834L37.7044 29.6473C38.1318 29.4314 38.3453 29.0537 38.3453 28.6759Z" fill="url(#paint1_linear)"/>
<path d="M8.7449 12.3532L22.9709 5.16656C23.8229 4.73615 24.8726 4.73615 25.7246 5.16656L37.7045 11.2186C38.559 11.6503 38.559 12.7295 37.7045 13.1612L23.4785 20.3478C22.6265 20.7783 21.5767 20.7783 20.7247 20.3478L8.7449 14.2958C7.89037 13.8641 7.89037 12.7849 8.7449 12.3532Z" fill="url(#paint2_linear)"/>
<path d="M13.3574 10.0222L28.6368 17.741L32.6899 15.6935L17.4105 7.97461L13.3574 10.0222Z" fill="#DEA861"/>
<path d="M15.7803 8.79883L31.0597 16.5177L30.2657 16.9188L14.9863 9.19996L15.7803 8.79883Z" fill="#CC8241"/>
<path d="M28.6372 17.7428V20.6716L32.6903 18.6241V15.6953L28.6372 17.7428Z" fill="#CC8241"/>
<path d="M0.930375 12.6595L10.2229 17.3539C10.6977 17.5937 10.9902 18.037 10.9902 18.5167C10.9902 18.9345 10.4733 19.1956 10.0598 18.9868L0.767344 14.2924C0.2925 14.0525 0 13.6092 0 13.1295C0 12.7117 0.516844 12.4505 0.930375 12.6595Z" fill="url(#paint3_linear)"/>
<path d="M4.32744 17.8372L13.6198 22.5316C14.0947 22.7715 14.3872 23.2148 14.3872 23.6945C14.3872 24.1123 13.8703 24.3734 13.4568 24.1645L4.16432 19.4701C3.68947 19.2303 3.39697 18.787 3.39697 18.3073C3.39707 17.8894 3.91391 17.6283 4.32744 17.8372Z" fill="url(#paint4_linear)"/>
<path d="M45.5992 16.3072L45.5996 16.3066L42.4446 14.7173L42.4445 14.7177C41.1991 14.1403 39.5992 14.2226 37.8539 15.1042C33.8828 17.1104 30.6636 22.4925 30.6636 27.1255C30.6636 29.6726 31.6379 31.4607 33.174 32.2232L33.1729 32.2252L36.0555 33.6814L36.0585 33.676C37.3255 34.3388 38.9878 34.2909 40.8095 33.3706C44.7806 31.3645 47.9999 25.9824 47.9999 21.3493C47.9999 18.8631 47.072 17.0993 45.5992 16.3072Z" fill="url(#paint5_linear)"/>
<path d="M46.5689 27.1402C48.9587 22.2325 48.3237 17.2951 45.1506 16.1121C41.9775 14.9291 37.4679 17.9485 35.0781 22.8561C32.6883 27.7638 33.3233 32.7012 36.4964 33.8842C39.6694 35.0672 44.179 32.0478 46.5689 27.1402Z" fill="#A996EB"/>
<path d="M44.9704 26.5454C46.6955 23.0029 46.2371 19.439 43.9467 18.585C41.6563 17.7311 38.4012 19.9106 36.6761 23.453C34.9511 26.9955 35.4095 30.5594 37.6999 31.4134C39.9903 32.2673 43.2454 30.0878 44.9704 26.5454Z" fill="#F2EFFA"/>
<path d="M45.2451 19.5971C44.3343 18.3122 42.6884 17.9784 40.8091 18.9277V24.9829L45.2451 19.5971Z" fill="#FF4757"/>
<path d="M41.8148 24.4735C41.8148 23.8259 41.3648 23.5283 40.8097 23.8086C40.2546 24.089 39.8047 24.8413 39.8047 25.489C39.8047 26.1366 40.2547 26.4342 40.8097 26.1537C41.3648 25.8734 41.8148 25.1211 41.8148 24.4735Z" fill="#594A8E"/>
<path d="M40.418 26.037V20.4813C40.418 20.2921 40.5933 20.1387 40.8096 20.1387C41.0258 20.1387 41.2012 20.2921 41.2012 20.4813V23.926L43.3206 21.3705C43.4476 21.2175 43.6923 21.183 43.8674 21.2944C44.0424 21.4055 44.0813 21.6197 43.9544 21.7729L40.418 26.037Z" fill="#594A8E"/>
<path d="M41.0435 15.0079V13.7578L38.2842 13.9204V15.2263L38.2861 15.2261C38.2793 15.3915 38.3883 15.5502 38.6213 15.6679C39.1206 15.9202 39.9928 15.8885 40.5693 15.5973C40.9026 15.4289 41.063 15.2108 41.0435 15.0079Z" fill="#594A8E"/>
<path d="M41.8104 12.9874V11.4102L37.5166 11.6632V13.3273L37.5195 13.3271C37.5089 13.5844 37.6787 13.8315 38.0411 14.0146C38.8181 14.4071 40.1753 14.3579 41.0725 13.9046C41.5911 13.6426 41.8406 13.3031 41.8104 12.9874Z" fill="url(#paint6_linear)"/>
<path d="M39.8271 12.5666C41.0116 12.4403 41.9056 11.8626 41.824 11.2762C41.7423 10.6899 40.7159 10.3169 39.5314 10.4432C38.3469 10.5695 37.4529 11.1472 37.5346 11.7336C37.6162 12.32 38.6426 12.6929 39.8271 12.5666Z" fill="#FF7A85"/>
<path d="M35.7827 17.8376L34.5065 17.041L32.5425 19.8289L33.889 20.6694L33.8903 20.6675C34.0932 20.804 34.3789 20.8237 34.7102 20.6917C35.4202 20.4086 36.0659 19.5429 36.1522 18.7581C36.2021 18.3045 36.0534 17.9784 35.7827 17.8376Z" fill="url(#paint7_linear)"/>
<path d="M34.4226 18.8716C34.9184 18.0747 34.9027 17.2296 34.3874 16.9841C33.8721 16.7386 33.0524 17.1857 32.5566 17.9827C32.0607 18.7797 32.0764 19.6248 32.5917 19.8702C33.107 20.1157 33.9267 19.6686 34.4226 18.8716Z" fill="#06DAAE"/>
</g>
<defs>
<linearGradient id="paint0_linear" x1="42.6154" y1="15.4739" x2="47.0256" y2="15.4739" gradientUnits="userSpaceOnUse">
<stop stop-color="#236568"/>
<stop offset="1" stop-color="#2F878A"/>
</linearGradient>
<linearGradient id="paint1_linear" x1="19.6845" y1="24.6731" x2="23.8387" y2="24.6731" gradientUnits="userSpaceOnUse">
<stop stop-color="#CC8241"/>
<stop offset="1" stop-color="#DEA861"/>
</linearGradient>
<linearGradient id="paint2_linear" x1="14.8056" y1="8.50392" x2="29.2568" y2="18.0393" gradientUnits="userSpaceOnUse">
<stop stop-color="#DEA861"/>
<stop offset="1" stop-color="#EBCBA0"/>
</linearGradient>
<linearGradient id="paint3_linear" x1="11.8224" y1="19.2302" x2="1.63883" y2="12.0681" gradientUnits="userSpaceOnUse">
<stop stop-color="#43386B"/>
<stop offset="1" stop-color="#7662BD"/>
</linearGradient>
<linearGradient id="paint4_linear" x1="15.2195" y1="24.4079" x2="5.03591" y2="17.2457" gradientUnits="userSpaceOnUse">
<stop stop-color="#43386B"/>
<stop offset="1" stop-color="#7662BD"/>
</linearGradient>
<linearGradient id="paint5_linear" x1="39.8195" y1="23.4982" x2="42.2229" y2="18.7407" gradientUnits="userSpaceOnUse">
<stop stop-color="#43386B"/>
<stop offset="1" stop-color="#7662BD"/>
</linearGradient>
<linearGradient id="paint6_linear" x1="37.5166" y1="12.8449" x2="42.3577" y2="12.8449" gradientUnits="userSpaceOnUse">
<stop stop-color="#AB2C37"/>
<stop offset="1" stop-color="#FF7A85"/>
</linearGradient>
<linearGradient id="paint7_linear" x1="33.5056" y1="20.4352" x2="35.5394" y2="17.1788" gradientUnits="userSpaceOnUse">
<stop stop-color="#236568"/>
<stop offset="1" stop-color="#2F878A"/>
</linearGradient>
<clipPath id="clip0">
<rect width="48" height="42" fill="white"/>
</clipPath>
</defs>
</svg>
