<svg width="9" height="13" viewBox="0 0 9 13" fill="none" xmlns="http://www.w3.org/2000/svg">
<path fill-rule="evenodd" clip-rule="evenodd" d="M8.35684 4.8125C8.21155 4.8125 8.06563 4.76365 7.94541 4.66337L4.49269 1.78611L1.04575 4.55987C0.769969 4.78293 0.364976 4.73922 0.141908 4.46216C-0.0805166 4.18575 -0.0368031 3.78142 0.240263 3.55836L4.09734 0.454827C4.33519 0.262624 4.67654 0.265195 4.91182 0.461898L8.7689 3.67599C9.04147 3.90291 9.07811 4.30853 8.85118 4.58108C8.7239 4.73343 8.54133 4.8125 8.35684 4.8125Z" fill="#3456AF"/>
<path fill-rule="evenodd" clip-rule="evenodd" d="M0.643165 8.1875C0.788448 8.1875 0.934374 8.23635 1.05459 8.33663L4.50731 11.2139L7.95425 8.44013C8.23003 8.21707 8.63502 8.26078 8.85809 8.53784C9.08052 8.81425 9.0368 9.21858 8.75974 9.44164L4.90266 12.5452C4.66481 12.7374 4.32346 12.7348 4.08818 12.5381L0.2311 9.324C-0.0414664 9.09709 -0.0781084 8.69147 0.148816 8.41891C0.2761 8.26657 0.458668 8.1875 0.643165 8.1875Z" fill="#C1C1C1"/>
</svg>
