<svg width="19" height="19" viewBox="0 0 19 19" fill="none" xmlns="http://www.w3.org/2000/svg">
<path fill-rule="evenodd" clip-rule="evenodd" d="M12.969 11.0833H6.93808L5.64212 6.33333H15.344L12.969 11.0833ZM16.6906 5.5005C16.4001 5.03025 15.8966 4.75 15.344 4.75H5.21067L4.72221 2.95846C4.628 2.61408 4.31529 2.375 3.95825 2.375H2.37492C1.93713 2.375 1.58325 2.72967 1.58325 3.16667C1.58325 3.60367 1.93713 3.95833 2.37492 3.95833H3.35342L5.56929 12.0832C5.6635 12.4276 5.97621 12.6667 6.33325 12.6667H13.4583C13.7583 12.6667 14.0322 12.4972 14.1668 12.2289L16.7603 7.04108C17.0081 6.54629 16.9812 5.97075 16.6906 5.5005ZM5.93758 14.25C5.28208 14.25 4.75008 14.7812 4.75008 15.4375C4.75008 16.0938 5.28208 16.625 5.93758 16.625C6.59308 16.625 7.12508 16.0938 7.12508 15.4375C7.12508 14.7812 6.59308 14.25 5.93758 14.25ZM12.6667 15.4375C12.6667 14.7812 13.1987 14.25 13.8542 14.25C14.5097 14.25 15.0417 14.7812 15.0417 15.4375C15.0417 16.0938 14.5097 16.625 13.8542 16.625C13.1987 16.625 12.6667 16.0938 12.6667 15.4375Z" fill="white"/>
</svg>
