<svg width="22" height="20" viewBox="0 0 22 20" fill="none" xmlns="http://www.w3.org/2000/svg">
<path fill-rule="evenodd" clip-rule="evenodd" d="M17.3012 19.1486C17.1329 19.1486 16.9645 19.1112 16.811 19.0345L11.4118 16.3432L6.01265 19.0345C5.65475 19.2123 5.22273 19.1809 4.89977 18.9546C4.57364 18.7284 4.41164 18.3455 4.4794 17.9667L5.50862 12.2812L1.14608 8.25547C0.854895 7.98776 0.751125 7.5857 0.875013 7.21899C0.997842 6.85228 1.33033 6.58559 1.72952 6.53002L7.76613 5.69357L10.4631 0.515209C10.821 -0.171736 12.0027 -0.171736 12.3606 0.515209L15.0575 5.69357L21.0941 6.53002C21.4933 6.58559 21.8258 6.85228 21.9486 7.21899C22.0725 7.5857 21.9687 7.98776 21.6776 8.25547L17.315 12.2812L18.3442 17.9667C18.412 18.3455 18.25 18.7284 17.9239 18.9546C17.7407 19.084 17.5215 19.1486 17.3012 19.1486Z" fill="#E0E0E0"/>
</svg>
