<svg width="22" height="20" viewBox="0 0 22 20" fill="none" xmlns="http://www.w3.org/2000/svg">
<path fill-rule="evenodd" clip-rule="evenodd" d="M16.5954 19.1486C16.4271 19.1486 16.2587 19.1112 16.1052 19.0345L10.706 16.3432L5.30681 19.0345C4.94892 19.2123 4.5169 19.1809 4.19394 18.9546C3.86781 18.7284 3.7058 18.3455 3.77357 17.9667L4.80279 12.2812L0.440252 8.25547C0.149063 7.98776 0.0452942 7.5857 0.169182 7.21899C0.292011 6.85228 0.624496 6.58559 1.02369 6.53002L7.0603 5.69357L9.75724 0.515209C10.1151 -0.171736 11.2968 -0.171736 11.6547 0.515209L14.3517 5.69357L20.3883 6.53002C20.7875 6.58559 21.12 6.85228 21.2428 7.21899C21.3667 7.5857 21.2629 7.98776 20.9717 8.25547L16.6092 12.2812L17.6384 17.9667C17.7062 18.3455 17.5442 18.7284 17.218 18.9546C17.0348 19.084 16.8157 19.1486 16.5954 19.1486Z" fill="#FC3B3E"/>
</svg>
