<svg width="18" height="19" viewBox="0 0 18 19" fill="none" xmlns="http://www.w3.org/2000/svg">
<path fill-rule="evenodd" clip-rule="evenodd" d="M8.86596 12.1295C8.99271 12.1295 9.12021 12.1617 9.23496 12.2262L12.7502 14.2145V4.5005C12.7502 4.34975 12.6595 4.25 12.6002 4.25H5.40021C5.34021 4.25 5.25021 4.34975 5.25021 4.5005V14.1755L8.47971 12.2367C8.59896 12.1655 8.73246 12.1295 8.86596 12.1295M4.50021 16.25C4.37271 16.25 4.24521 16.2178 4.13046 16.1525C3.89571 16.0198 3.75021 15.77 3.75021 15.5V4.5005C3.75021 3.53525 4.49046 2.75 5.40021 2.75H12.6002C13.51 2.75 14.2502 3.53525 14.2502 4.5005V15.5C14.2502 15.767 14.1085 16.0138 13.8782 16.148C13.6472 16.283 13.3637 16.2853 13.1312 16.1533L8.87721 13.7473L4.88571 16.1435C4.76721 16.214 4.63371 16.25 4.50021 16.25" fill="#3456AF"/>
</svg>
