<svg width="24" height="24" viewBox="0 0 24 24" fill="none" xmlns="http://www.w3.org/2000/svg">
<path fill-rule="evenodd" clip-rule="evenodd" d="M19.0001 18C19.0001 18.552 18.5521 19 18.0001 19C17.4481 19 17.0001 18.552 17.0001 18C17.0001 17.448 17.4481 17 18.0001 17C18.5521 17 19.0001 17.448 19.0001 18ZM12.0002 15H4.00024L4.01624 5H15.0002L14.9842 15H12.0002ZM7.00012 18C7.00012 18.552 6.55212 19 6.00012 19C5.44812 19 5.00012 18.552 5.00012 18C5.00012 17.448 5.44812 17 6.00012 17C6.55212 17 7.00012 17.448 7.00012 18ZM20.0001 12.48V15H17.0001V10.081L20.0001 12.48ZM21.6251 11.219L17.0001 7.519V5C17.0001 3.897 16.1871 3 15.1871 3H3.81212C2.81312 3 2.00012 3.897 2.00012 5V15C2.00012 15.873 2.51312 16.609 3.22112 16.882C3.08112 17.228 3.00012 17.604 3.00012 18C3.00012 19.654 4.34612 21 6.00012 21C7.65412 21 9.00012 19.654 9.00012 18C9.00012 17.647 8.92812 17.314 8.81512 17H12.0001H15.1851C15.0721 17.314 15.0001 17.647 15.0001 18C15.0001 19.654 16.3461 21 18.0001 21C19.6541 21 21.0001 19.654 21.0001 18C21.0001 17.647 20.9281 17.314 20.8151 17H21.0001C21.5531 17 22.0001 16.553 22.0001 16V12C22.0001 11.696 21.8621 11.409 21.6251 11.219Z" fill="#3456AF"/>
</svg>
