<svg width="40" height="40" viewBox="0 0 40 40" fill="none" xmlns="http://www.w3.org/2000/svg">
<path fill-rule="evenodd" clip-rule="evenodd" d="M22.3568 20.0004L29.5118 12.8454C30.1635 12.1937 30.1635 11.1404 29.5118 10.4887C28.8602 9.83708 27.8068 9.83708 27.1552 10.4887L20.0002 17.6437L12.8452 10.4887C12.1935 9.83708 11.1402 9.83708 10.4885 10.4887C9.83684 11.1404 9.83684 12.1937 10.4885 12.8454L17.6435 20.0004L10.4885 27.1554C9.83684 27.8071 9.83684 28.8604 10.4885 29.5121C10.8135 29.8371 11.2402 30.0004 11.6668 30.0004C12.0935 30.0004 12.5202 29.8371 12.8452 29.5121L20.0002 22.3571L27.1552 29.5121C27.4802 29.8371 27.9068 30.0004 28.3335 30.0004C28.7602 30.0004 29.1868 29.8371 29.5118 29.5121C30.1635 28.8604 30.1635 27.8071 29.5118 27.1554L22.3568 20.0004Z" fill="#EDEDED"/>
</svg>
