<svg width="20" height="20" viewBox="0 0 20 20" fill="none" xmlns="http://www.w3.org/2000/svg">
<path fill-rule="evenodd" clip-rule="evenodd" d="M10 9.09955C9.25573 9.09955 8.65003 8.49385 8.65003 7.74955C8.65003 7.00525 9.25573 6.39955 10 6.39955C10.7443 6.39955 11.35 7.00525 11.35 7.74955C11.35 8.49385 10.7443 9.09955 10 9.09955ZM9.99968 4.59955C8.26268 4.59955 6.84968 6.01255 6.84968 7.74955C6.84968 9.48654 8.26268 10.8995 9.99968 10.8995C11.7367 10.8995 13.1497 9.48654 13.1497 7.74955C13.1497 6.01255 11.7367 4.59955 9.99968 4.59955ZM10 16.8814C8.49253 15.4558 4.60003 11.4535 4.60003 8.1298C4.60003 5.1913 7.02193 2.8 10 2.8C12.9781 2.8 15.4 5.1913 15.4 8.1298C15.4 11.4535 11.5075 15.4558 10 16.8814ZM9.99968 1C6.02978 1 2.79968 4.1977 2.79968 8.1298C2.79968 13.0573 9.14378 18.5509 9.41378 18.7822C9.58298 18.9271 9.79088 19 9.99968 19C10.2085 19 10.4164 18.9271 10.5856 18.7822C10.8556 18.5509 17.1997 13.0573 17.1997 8.1298C17.1997 4.1977 13.9696 1 9.99968 1Z" fill="#3456AF"/>
</svg>
