<svg width="20" height="20" viewBox="0 0 20 20" fill="none" xmlns="http://www.w3.org/2000/svg">
<path fill-rule="evenodd" clip-rule="evenodd" d="M10.0004 2.82503L3.60477 6.42301V6.55549C3.60477 10.8862 5.94922 14.8963 9.72445 17.0205L10.0004 17.1758L10.2763 17.0205C14.0515 14.8963 16.396 10.8862 16.396 6.55549V6.42301L10.0004 2.82503ZM10 19.0004C9.69028 19.0004 9.38055 18.9237 9.10554 18.7683L8.82871 18.6121C4.47878 16.1663 1.7771 11.5459 1.7771 6.55549V6.42301C1.7771 5.76609 2.13343 5.15577 2.7072 4.83142L9.10463 1.23344C9.65739 0.922796 10.3435 0.921883 10.8945 1.23253L17.291 4.83051C17.8666 5.15577 18.2229 5.76609 18.2229 6.42301V6.55549C18.2229 11.5459 15.5212 16.1663 11.1713 18.6121L10.8954 18.7674C10.6195 18.9228 10.3097 19.0004 10 19.0004Z" fill="#3456AF"/>
</svg>
